<svg width="1280" height="950" viewBox="0 0 1280 950" fill="none" xmlns="http://www.w3.org/2000/svg">
<rect width="1280" height="950" fill="white" fill-opacity="0.05"/>
<path d="M0 0H182.064L399 482.703L182.064 950H0V0Z" fill="#00C6DC" fill-opacity="0.12"/>
<path d="M71.1632 793.898C71.1632 787.253 72.4685 782.411 75.0792 779.373C77.6899 776.335 81.3685 774.817 86.1152 774.817C88.2037 774.817 90.2211 775.173 92.1672 775.885C94.0659 776.549 95.7747 777.665 97.2936 779.231C98.8125 780.797 100.023 782.886 100.925 785.497C101.779 788.107 102.206 791.311 102.206 795.109V800.947H122V807.355H71.1632V793.898ZM76.6456 794.468V800.947H96.724V795.821C96.724 792.593 96.3917 789.911 95.7272 787.775C95.0152 785.639 93.8997 784.049 92.3808 783.005C90.8619 781.96 88.8683 781.438 86.4 781.438C83.1248 781.438 80.6803 782.482 79.0664 784.571C77.4525 786.659 76.6456 789.958 76.6456 794.468ZM83.1248 747.3C83.1248 746.588 83.1723 745.828 83.2672 745.022C83.3147 744.167 83.4096 743.431 83.552 742.814L89.3192 743.598C89.1768 744.215 89.0581 744.903 88.9632 745.662C88.8683 746.374 88.8208 747.063 88.8208 747.727C88.8208 749.199 89.1293 750.599 89.7464 751.928C90.3635 753.257 91.2416 754.444 92.3808 755.488C93.4725 756.532 94.8016 757.363 96.368 757.98C97.9344 758.55 99.6907 758.834 101.637 758.834H122V765.1H83.8368V759.974L90.8144 759.262V758.977C89.3904 758.17 88.1088 757.197 86.9696 756.058C85.7829 754.918 84.8573 753.613 84.1928 752.142C83.4808 750.67 83.1248 749.056 83.1248 747.3ZM102.847 703.9C106.027 703.9 108.852 704.327 111.32 705.181C113.741 705.988 115.806 707.175 117.514 708.741C119.223 710.26 120.529 712.135 121.43 714.366C122.285 716.55 122.712 718.994 122.712 721.7C122.712 724.215 122.285 726.541 121.43 728.677C120.529 730.813 119.223 732.664 117.514 734.231C115.806 735.797 113.741 737.031 111.32 737.933C108.852 738.788 106.027 739.215 102.847 739.215C98.6227 739.215 95.0627 738.503 92.1672 737.079C89.2243 735.655 86.9933 733.614 85.4744 730.956C83.908 728.298 83.1248 725.141 83.1248 721.486C83.1248 718.021 83.908 714.983 85.4744 712.372C86.9933 709.714 89.2243 707.65 92.1672 706.178C95.0627 704.659 98.6227 703.9 102.847 703.9ZM102.847 732.736C105.838 732.736 108.448 732.356 110.679 731.596C112.863 730.79 114.548 729.555 115.734 727.894C116.921 726.233 117.514 724.12 117.514 721.557C117.514 718.994 116.921 716.882 115.734 715.22C114.548 713.559 112.863 712.349 110.679 711.589C108.448 710.782 105.838 710.379 102.847 710.379C99.8093 710.379 97.2224 710.782 95.0864 711.589C92.9504 712.396 91.3128 713.63 90.1736 715.292C88.9869 716.906 88.3936 719.018 88.3936 721.628C88.3936 725.521 89.6752 728.345 92.2384 730.101C94.8016 731.858 98.3379 732.736 102.847 732.736ZM83.1248 652.104C83.1248 647.784 84.2403 644.557 86.4712 642.421C88.6547 640.285 92.2147 639.217 97.1512 639.217H122V645.411H97.436C94.4456 645.411 92.1909 646.052 90.672 647.333C89.1531 648.568 88.3936 650.514 88.3936 653.172C88.3936 656.874 89.4616 659.532 91.5976 661.146C93.7336 662.713 96.8427 663.496 100.925 663.496H122V669.69H97.436C95.4424 669.69 93.7811 669.975 92.452 670.545C91.0755 671.114 90.0549 671.969 89.3904 673.108C88.7259 674.247 88.3936 675.719 88.3936 677.522C88.3936 680.085 88.9395 682.103 90.0312 683.574C91.0755 685.046 92.6181 686.114 94.6592 686.778C96.7003 687.395 99.216 687.704 102.206 687.704H122V693.969H83.8368V688.914L89.0344 687.989V687.633C87.7053 686.826 86.6136 685.853 85.7592 684.713C84.8573 683.527 84.1928 682.221 83.7656 680.797C83.3384 679.373 83.1248 677.902 83.1248 676.383C83.1248 673.44 83.6469 670.996 84.6912 669.049C85.7355 667.056 87.3493 665.608 89.5328 664.706V664.35C87.3493 663.069 85.7355 661.336 84.6912 659.153C83.6469 656.922 83.1248 654.572 83.1248 652.104ZM83.1248 609.272C83.1248 604.573 84.7624 600.799 88.0376 597.951C91.3128 595.056 96.2493 593.608 102.847 593.608C107.167 593.608 110.822 594.273 113.812 595.602C116.755 596.883 118.986 598.711 120.505 601.084C121.976 603.41 122.712 606.163 122.712 609.343C122.712 611.289 122.451 613.022 121.929 614.541C121.407 616.06 120.742 617.365 119.935 618.457C119.081 619.501 118.155 620.403 117.158 621.162V621.59C117.965 621.495 118.986 621.4 120.22 621.305C121.454 621.21 122.522 621.162 123.424 621.162H139.088V627.428H83.8368V622.302L89.0344 621.447V621.162C87.9427 620.403 86.9459 619.501 86.044 618.457C85.1421 617.365 84.4301 616.084 83.908 614.612C83.3859 613.093 83.1248 611.313 83.1248 609.272ZM88.3936 610.411C88.3936 612.974 88.892 615.039 89.8888 616.606C90.8381 618.172 92.2859 619.311 94.232 620.023C96.1781 620.735 98.6464 621.115 101.637 621.162H102.847C105.98 621.162 108.638 620.83 110.822 620.166C113.005 619.501 114.666 618.386 115.806 616.819C116.945 615.205 117.514 613.022 117.514 610.269C117.514 607.943 116.874 606.044 115.592 604.573C114.31 603.054 112.578 601.938 110.394 601.226C108.163 600.467 105.624 600.087 102.776 600.087C98.4091 600.087 94.9203 600.942 92.3096 602.65C89.6989 604.312 88.3936 606.899 88.3936 610.411ZM117.586 570.879C117.586 569.929 117.514 568.956 117.372 567.959C117.182 566.963 116.992 566.156 116.802 565.539H121.573C121.905 566.203 122.166 567.152 122.356 568.387C122.593 569.621 122.712 570.807 122.712 571.947C122.712 573.94 122.38 575.791 121.715 577.5C121.003 579.162 119.793 580.514 118.084 581.559C116.375 582.603 113.978 583.125 110.893 583.125H88.6784V588.536H85.688L83.196 583.054L75.0792 580.562V576.859H83.8368V565.823H88.6784V576.859H110.75C113.076 576.859 114.809 576.314 115.948 575.222C117.04 574.083 117.586 572.635 117.586 570.879ZM122 510.138V538.547H71.1632L71.1632 510.138H76.788L76.788 532.139H92.6656V511.42H98.2192V532.139H116.375V510.138H122ZM83.1248 481.469C83.1248 476.912 84.2403 473.47 86.4712 471.145C88.6547 468.819 92.2147 467.656 97.1512 467.656H122V473.85H97.5784C94.4931 473.85 92.1909 474.538 90.672 475.915C89.1531 477.292 88.3936 479.451 88.3936 482.394C88.3936 486.619 89.5803 489.538 91.9536 491.152C94.3269 492.766 97.7445 493.573 102.206 493.573H122L122 499.838H83.8368V494.783L89.0344 493.857V493.501C87.7053 492.647 86.6136 491.603 85.7592 490.369C84.8573 489.087 84.1928 487.687 83.7656 486.168C83.3384 484.649 83.1248 483.082 83.1248 481.469ZM83.1248 442.297C83.1248 439.781 83.5995 437.527 84.5488 435.533C85.4981 433.492 86.9459 431.759 88.892 430.335V429.979L83.8368 429.125V424.141H122.641C126.248 424.141 129.262 424.758 131.683 425.992C134.151 427.226 136.003 429.101 137.237 431.617C138.471 434.133 139.088 437.337 139.088 441.229C139.088 443.982 138.874 446.521 138.447 448.847C138.067 451.126 137.474 453.167 136.667 454.971H130.9C131.517 453.736 132.039 452.384 132.466 450.912C132.941 449.441 133.297 447.851 133.534 446.142C133.772 444.433 133.89 442.677 133.89 440.873C133.89 437.598 132.917 435.035 130.971 433.183C129.073 431.285 126.462 430.335 123.139 430.335H121.644C121.074 430.335 120.267 430.312 119.223 430.264C118.131 430.217 117.372 430.169 116.945 430.122V430.407C118.891 431.736 120.339 433.397 121.288 435.391C122.237 437.337 122.712 439.615 122.712 442.226C122.712 447.162 120.979 451.031 117.514 453.831C114.049 456.584 109.208 457.961 102.99 457.961C98.9075 457.961 95.3949 457.344 92.452 456.11C89.4616 454.828 87.1595 453.024 85.5456 450.699C83.9317 448.373 83.1248 445.572 83.1248 442.297ZM88.3936 441.443C88.3936 443.579 88.9632 445.406 90.1024 446.925C91.2416 448.396 92.9029 449.536 95.0864 450.343C97.2699 451.102 99.928 451.482 103.061 451.482C107.76 451.482 111.367 450.627 113.883 448.919C116.351 447.162 117.586 444.623 117.586 441.3C117.586 439.354 117.348 437.693 116.874 436.316C116.351 434.94 115.568 433.8 114.524 432.899C113.432 431.997 112.056 431.332 110.394 430.905C108.733 430.478 106.763 430.264 104.485 430.264H102.99C99.5245 430.264 96.724 430.668 94.588 431.475C92.452 432.234 90.8856 433.444 89.8888 435.106C88.892 436.767 88.3936 438.879 88.3936 441.443ZM83.8368 405.755H122V412.02H83.8368V405.755ZM69.5256 408.816C69.5256 407.867 69.8579 407.036 70.5224 406.324C71.1395 405.565 72.1363 405.185 73.5128 405.185C74.8419 405.185 75.8387 405.565 76.5032 406.324C77.1677 407.036 77.5 407.867 77.5 408.816C77.5 409.861 77.1677 410.739 76.5032 411.451C75.8387 412.163 74.8419 412.519 73.5128 412.519C72.1363 412.519 71.1395 412.163 70.5224 411.451C69.8579 410.739 69.5256 409.861 69.5256 408.816ZM83.1248 375.294C83.1248 370.738 84.2403 367.296 86.4712 364.97C88.6547 362.645 92.2147 361.482 97.1512 361.482H122V367.676H97.5784C94.4931 367.676 92.1909 368.364 90.672 369.741C89.1531 371.117 88.3936 373.277 88.3936 376.22C88.3936 380.445 89.5803 383.364 91.9536 384.978C94.3269 386.592 97.7445 387.398 102.206 387.398H122V393.664H83.8368V388.609L89.0344 387.683V387.327C87.7053 386.473 86.6136 385.429 85.7592 384.194C84.8573 382.913 84.1928 381.513 83.7656 379.994C83.3384 378.475 83.1248 376.908 83.1248 375.294ZM83.1248 334.912C83.1248 331.637 83.8368 328.837 85.2608 326.511C86.6848 324.137 88.7021 322.334 91.3128 321.1C93.876 319.818 96.8901 319.177 100.355 319.177H104.129V345.308C108.448 345.213 111.747 344.121 114.026 342.032C116.257 339.896 117.372 336.93 117.372 333.132C117.372 330.712 117.158 328.576 116.731 326.724C116.257 324.826 115.592 322.88 114.738 320.886H120.22C121.074 322.832 121.691 324.754 122.071 326.653C122.498 328.552 122.712 330.806 122.712 333.417C122.712 337.025 121.976 340.229 120.505 343.029C119.033 345.782 116.85 347.942 113.954 349.508C111.011 351.027 107.428 351.787 103.203 351.787C99.0261 351.787 95.4424 351.098 92.452 349.722C89.4616 348.298 87.1595 346.328 85.5456 343.812C83.9317 341.249 83.1248 338.282 83.1248 334.912ZM88.2512 334.984C88.2512 337.974 89.2243 340.347 91.1704 342.104C93.0691 343.812 95.7272 344.833 99.1448 345.165V325.728C96.9613 325.728 95.0627 326.06 93.4488 326.724C91.8349 327.389 90.5771 328.409 89.6752 329.786C88.7259 331.115 88.2512 332.848 88.2512 334.984ZM83.1248 294.723C83.1248 291.448 83.8368 288.648 85.2608 286.322C86.6848 283.948 88.7021 282.145 91.3128 280.91C93.876 279.629 96.8901 278.988 100.355 278.988H104.129V305.118C108.448 305.024 111.747 303.932 114.026 301.843C116.257 299.707 117.372 296.741 117.372 292.943C117.372 290.522 117.158 288.386 116.731 286.535C116.257 284.637 115.592 282.69 114.738 280.697H120.22C121.074 282.643 121.691 284.565 122.071 286.464C122.498 288.363 122.712 290.617 122.712 293.228C122.712 296.836 121.976 300.04 120.505 302.84C119.033 305.593 116.85 307.753 113.954 309.319C111.011 310.838 107.428 311.598 103.203 311.598C99.0261 311.598 95.4424 310.909 92.452 309.533C89.4616 308.109 87.1595 306.139 85.5456 303.623C83.9317 301.06 83.1248 298.093 83.1248 294.723ZM88.2512 294.794C88.2512 297.785 89.2243 300.158 91.1704 301.914C93.0691 303.623 95.7272 304.644 99.1448 304.976V285.538C96.9613 285.538 95.0627 285.871 93.4488 286.535C91.8349 287.2 90.5771 288.22 89.6752 289.597C88.7259 290.926 88.2512 292.658 88.2512 294.794ZM83.1248 251.473C83.1248 250.761 83.1723 250.001 83.2672 249.194C83.3147 248.34 83.4096 247.604 83.552 246.987L89.3192 247.77C89.1768 248.387 89.0581 249.076 88.9632 249.835C88.8683 250.547 88.8208 251.235 88.8208 251.9C88.8208 253.371 89.1293 254.772 89.7464 256.101C90.3635 257.43 91.2416 258.616 92.3808 259.661C93.4725 260.705 94.8016 261.536 96.368 262.153C97.9344 262.722 99.6907 263.007 101.637 263.007H122L122 269.273H83.8368V264.146L90.8144 263.434V263.149C89.3904 262.342 88.1088 261.369 86.9696 260.23C85.7829 259.091 84.8573 257.786 84.1928 256.314C83.4808 254.843 83.1248 253.229 83.1248 251.473ZM83.8368 233.595H122V239.861H83.8368L83.8368 233.595ZM69.5256 236.657C69.5256 235.708 69.8579 234.877 70.5224 234.165C71.1395 233.405 72.1363 233.026 73.5128 233.026C74.8419 233.026 75.8387 233.405 76.5032 234.165C77.1677 234.877 77.5 235.708 77.5 236.657C77.5 237.701 77.1677 238.579 76.5032 239.291C75.8387 240.003 74.8419 240.359 73.5128 240.359C72.1363 240.359 71.1395 240.003 70.5224 239.291C69.8579 238.579 69.5256 237.701 69.5256 236.657ZM83.1248 203.135C83.1248 198.578 84.2403 195.137 86.4712 192.811C88.6547 190.485 92.2147 189.322 97.1512 189.322H122V195.517H97.5784C94.4931 195.517 92.1909 196.205 90.672 197.581C89.1531 198.958 88.3936 201.118 88.3936 204.061C88.3936 208.285 89.5803 211.204 91.9536 212.818C94.3269 214.432 97.7445 215.239 102.206 215.239H122V221.505H83.8368V216.449L89.0344 215.524V215.168C87.7053 214.313 86.6136 213.269 85.7592 212.035C84.8573 210.753 84.1928 209.353 83.7656 207.834C83.3384 206.315 83.1248 204.749 83.1248 203.135ZM83.1248 163.963C83.1248 161.448 83.5995 159.193 84.5488 157.199C85.4981 155.158 86.9459 153.426 88.892 152.002V151.646L83.8368 150.791V145.807H122.641C126.248 145.807 129.262 146.424 131.683 147.659C134.151 148.893 136.003 150.768 137.237 153.283C138.471 155.799 139.088 159.003 139.088 162.895C139.088 165.648 138.874 168.188 138.447 170.514C138.067 172.792 137.474 174.833 136.667 176.637H130.9C131.517 175.403 132.039 174.05 132.466 172.579C132.941 171.107 133.297 169.517 133.534 167.808C133.772 166.099 133.89 164.343 133.89 162.539C133.89 159.264 132.917 156.701 130.971 154.85C129.073 152.951 126.462 152.002 123.139 152.002H121.644C121.074 152.002 120.267 151.978 119.223 151.931C118.131 151.883 117.372 151.836 116.945 151.788V152.073C118.891 153.402 120.339 155.063 121.288 157.057C122.237 159.003 122.712 161.281 122.712 163.892C122.712 168.829 120.979 172.697 117.514 175.498C114.049 178.251 109.208 179.627 102.99 179.627C98.9075 179.627 95.3949 179.01 92.452 177.776C89.4616 176.495 87.1595 174.691 85.5456 172.365C83.9317 170.039 83.1248 167.239 83.1248 163.963ZM88.3936 163.109C88.3936 165.245 88.9632 167.072 90.1024 168.591C91.2416 170.063 92.9029 171.202 95.0864 172.009C97.2699 172.768 99.928 173.148 103.061 173.148C107.76 173.148 111.367 172.294 113.883 170.585C116.351 168.829 117.586 166.289 117.586 162.967C117.586 161.02 117.348 159.359 116.874 157.983C116.351 156.606 115.568 155.467 114.524 154.565C113.432 153.663 112.056 152.999 110.394 152.571C108.733 152.144 106.763 151.931 104.485 151.931H102.99C99.5245 151.931 96.724 152.334 94.588 153.141C92.452 153.9 90.8856 155.111 89.8888 156.772C88.892 158.433 88.3936 160.546 88.3936 163.109ZM195.678 613.909V623.521H229V629.787H195.678V636.48H192.759L190.623 629.787H188.416C185.141 629.787 182.483 629.312 180.442 628.363C178.401 627.366 176.905 625.942 175.956 624.091C175.007 622.24 174.532 620.009 174.532 617.398C174.532 615.879 174.674 614.503 174.959 613.268C175.197 611.987 175.481 610.895 175.814 609.993L180.726 611.631C180.489 612.39 180.252 613.268 180.014 614.265C179.777 615.262 179.658 616.283 179.658 617.327C179.658 619.415 180.37 620.982 181.794 622.026C183.171 623.023 185.354 623.521 188.345 623.521H190.837V613.909H195.678ZM209.847 573.841C213.027 573.841 215.852 574.269 218.32 575.123C220.741 575.93 222.806 577.117 224.514 578.683C226.223 580.202 227.529 582.077 228.43 584.308C229.285 586.491 229.712 588.936 229.712 591.641C229.712 594.157 229.285 596.483 228.43 598.619C227.529 600.755 226.223 602.606 224.514 604.173C222.806 605.739 220.741 606.973 218.32 607.875C215.852 608.729 213.027 609.157 209.847 609.157C205.623 609.157 202.063 608.445 199.167 607.021C196.224 605.597 193.993 603.556 192.474 600.897C190.908 598.239 190.125 595.083 190.125 591.428C190.125 587.963 190.908 584.925 192.474 582.314C193.993 579.656 196.224 577.591 199.167 576.12C202.063 574.601 205.623 573.841 209.847 573.841ZM209.847 602.677C212.838 602.677 215.448 602.298 217.679 601.538C219.863 600.731 221.548 599.497 222.734 597.836C223.921 596.175 224.514 594.062 224.514 591.499C224.514 588.936 223.921 586.824 222.734 585.162C221.548 583.501 219.863 582.291 217.679 581.531C215.448 580.724 212.838 580.321 209.847 580.321C206.809 580.321 204.222 580.724 202.086 581.531C199.95 582.338 198.313 583.572 197.174 585.233C195.987 586.847 195.394 588.96 195.394 591.57C195.394 595.463 196.675 598.287 199.238 600.043C201.802 601.799 205.338 602.677 209.847 602.677ZM190.125 546.111C190.125 545.399 190.172 544.64 190.267 543.833C190.315 542.978 190.41 542.243 190.552 541.626L196.319 542.409C196.177 543.026 196.058 543.714 195.963 544.474C195.868 545.186 195.821 545.874 195.821 546.538C195.821 548.01 196.129 549.41 196.746 550.739C197.363 552.068 198.242 553.255 199.381 554.299C200.473 555.344 201.802 556.174 203.368 556.791C204.934 557.361 206.691 557.646 208.637 557.646H229V563.911H190.837V558.785L197.814 558.073V557.788C196.39 556.981 195.109 556.008 193.97 554.869C192.783 553.73 191.857 552.424 191.193 550.953C190.481 549.481 190.125 547.868 190.125 546.111ZM202.158 493.078V475.491H227.078C227.979 478.245 228.644 481.021 229.071 483.822C229.498 486.622 229.712 489.803 229.712 493.363C229.712 498.631 228.668 503.07 226.579 506.677C224.443 510.285 221.429 513.038 217.537 514.936C213.597 516.787 208.945 517.713 203.582 517.713C198.265 517.713 193.661 516.669 189.769 514.58C185.877 512.492 182.862 509.501 180.726 505.609C178.543 501.669 177.451 496.923 177.451 491.369C177.451 488.521 177.712 485.839 178.234 483.323C178.757 480.76 179.492 478.387 180.442 476.203L185.995 478.624C185.188 480.428 184.5 482.469 183.93 484.747C183.361 486.978 183.076 489.304 183.076 491.725C183.076 495.76 183.907 499.225 185.568 502.12C187.229 505.016 189.603 507.223 192.688 508.742C195.726 510.261 199.357 511.02 203.582 511.02C207.616 511.02 211.2 510.379 214.333 509.098C217.418 507.769 219.839 505.704 221.595 502.903C223.304 500.103 224.158 496.424 224.158 491.867C224.158 490.349 224.111 489.019 224.016 487.88C223.874 486.694 223.707 485.626 223.518 484.676C223.328 483.679 223.138 482.754 222.948 481.899H207.854V493.078H202.158ZM190.125 449.465C190.125 446.19 190.837 443.389 192.261 441.063C193.685 438.69 195.702 436.886 198.313 435.652C200.876 434.371 203.89 433.73 207.355 433.73H211.129V459.86C215.448 459.765 218.747 458.674 221.026 456.585C223.257 454.449 224.372 451.482 224.372 447.685C224.372 445.264 224.158 443.128 223.731 441.277C223.257 439.378 222.592 437.432 221.738 435.439H227.22C228.074 437.385 228.691 439.307 229.071 441.206C229.498 443.105 229.712 445.359 229.712 447.97C229.712 451.577 228.976 454.781 227.505 457.582C226.033 460.335 223.85 462.495 220.954 464.061C218.011 465.58 214.428 466.339 210.203 466.339C206.026 466.339 202.442 465.651 199.452 464.275C196.462 462.851 194.159 460.881 192.546 458.365C190.932 455.802 190.125 452.835 190.125 449.465ZM195.251 449.536C195.251 452.527 196.224 454.9 198.17 456.656C200.069 458.365 202.727 459.386 206.145 459.718V440.28C203.961 440.28 202.063 440.613 200.449 441.277C198.835 441.942 197.577 442.962 196.675 444.339C195.726 445.668 195.251 447.4 195.251 449.536ZM190.125 405.645C190.125 401.088 191.24 397.647 193.471 395.321C195.655 392.995 199.215 391.832 204.151 391.832H229V398.026H204.578C201.493 398.026 199.191 398.715 197.672 400.091C196.153 401.468 195.394 403.627 195.394 406.57C195.394 410.795 196.58 413.714 198.954 415.328C201.327 416.942 204.745 417.749 209.206 417.749H229V424.014H190.837V418.959L196.034 418.034V417.678C194.705 416.823 193.614 415.779 192.759 414.545C191.857 413.263 191.193 411.863 190.766 410.344C190.338 408.825 190.125 407.259 190.125 405.645ZM229 347.249L213.265 353.372V373.522L229 379.574V386.053L177.95 366.188V360.421L229 340.628V347.249ZM192.19 360.991C191.81 361.133 191.122 361.37 190.125 361.703C189.128 362.035 188.107 362.367 187.063 362.7C185.971 362.984 185.141 363.222 184.571 363.412C185.521 363.649 186.494 363.91 187.49 364.195C188.44 364.432 189.318 364.693 190.125 364.978C190.932 365.215 191.62 365.429 192.19 365.619L207.569 371.386V355.295L192.19 360.991ZM229 319.362V337.732H225.298L223.945 331.751H183.29L181.866 337.732H178.163V319.362H181.866L183.29 325.343H223.945L225.298 319.362H229Z" fill="black"/>
</svg>
