<svg width="1512" height="2097" viewBox="0 0 1512 2097" fill="none" xmlns="http://www.w3.org/2000/svg">
<g clip-path="url(#clip0_164_34)">
<rect width="1512" height="2097" fill="white"/>
<rect y="982" width="1512" height="841" fill="#D9D9D9"/>
<rect width="1512" height="2097" fill="#FFF488"/>
<path d="M1539.01 280.935C1539.01 570.337 1757.95 982 1457.42 982C1156.89 982 756 573.435 756 284.034C756 -5.36724 1012.13 0.0260937 1312.66 0.0260937C1613.19 0.0260937 1539.01 -8.46579 1539.01 280.935Z" fill="#FFF061"/>
<path d="M-241.079 1469.56C-81.7743 1711.17 -37.9523 2175.37 212.948 2009.94C463.849 1844.51 573.634 1282.74 414.329 1041.13C255.024 799.519 44.1605 945.012 -206.74 1110.44C-457.641 1275.87 -400.384 1227.95 -241.079 1469.56Z" fill="#FFF061"/>
</g>
<defs>
<clipPath id="clip0_164_34">
<rect width="1512" height="2097" fill="white"/>
</clipPath>
</defs>
</svg>
